<svg width="12" height="11" viewBox="0 0 12 11" fill="none" xmlns="http://www.w3.org/2000/svg">
<path d="M6.23394 0.342658L7.51633 2.95107C7.6055 3.13249 7.77793 3.2582 7.97739 3.28724L10.845 3.70555C11.3474 3.77888 11.5478 4.39837 11.1844 4.75382L9.10942 6.78418C8.96521 6.92536 8.89928 7.12892 8.93343 7.32819L9.42319 10.1952C9.50905 10.6973 8.98395 11.0801 8.53475 10.8432L5.96996 9.48973C5.79161 9.39569 5.57839 9.39569 5.40004 9.48973L2.83525 10.8432C2.38605 11.0803 1.86095 10.6973 1.9468 10.1952L2.43657 7.32819C2.47072 7.12892 2.40478 6.92536 2.26058 6.78418L0.185562 4.75382C-0.177787 4.39813 0.0226241 3.77864 0.524956 3.70555L3.39261 3.28724C3.59207 3.2582 3.7645 3.13249 3.85367 2.95107L5.13606 0.342658C5.36043 -0.114219 6.00933 -0.114219 6.23394 0.342658Z" fill="#ED8A19"/>
</svg>
